<?xml version="1.0" standalone="no"?>
<!DOCTYPE svg PUBLIC "-//W3C//DTD SVG 20010904//EN"
 "http://www.w3.org/TR/2001/REC-SVG-20010904/DTD/svg10.dtd">
<svg version="1.0" xmlns="http://www.w3.org/2000/svg"
 width="800.000000pt" height="800.000000pt" viewBox="0 0 800.000000 800.000000"
 preserveAspectRatio="xMidYMid meet">

<g transform="translate(0.000000,800.000000) scale(0.100000,-0.100000)"
fill="#000000" stroke="none">
<path d="M3735 7990 c-995 -62 -1971 -524 -2654 -1258 -546 -586 -907 -1325
-1029 -2107 -38 -237 -46 -355 -46 -635 1 -530 84 -971 276 -1458 465 -1183
1466 -2070 2708 -2400 554 -148 1191 -170 1750 -61 1245 241 2278 1024 2840
2151 212 426 335 845 397 1353 23 195 23 655 0 850 -49 402 -121 690 -259
1043 -291 744 -815 1396 -1481 1845 -738 498 -1605 732 -2502 677z m503 -70
c569 -41 1052 -173 1542 -421 375 -189 689 -418 996 -724 322 -321 560 -657
760 -1070 612 -1267 499 -2760 -297 -3925 -321 -470 -739 -861 -1239 -1160
-184 -111 -544 -278 -710 -330 -267 -85 -361 -110 -535 -144 -713 -138 -1432
-80 -2111 170 -710 261 -1331 723 -1786 1329 -280 375 -480 771 -620 1230
-127 420 -186 905 -159 1322 36 585 162 1062 413 1563 445 893 1219 1584 2158
1927 507 186 1076 269 1588 233z"/>
<path d="M3730 7689 c-907 -76 -1691 -434 -2335 -1065 -399 -392 -714 -896
-895 -1433 -266 -787 -266 -1595 0 -2382 358 -1062 1196 -1913 2254 -2291 255
-91 511 -152 786 -187 786 -101 1600 61 2295 457 617 352 1149 911 1464 1541
409 815 507 1721 281 2596 -191 744 -618 1419 -1205 1908 -149 124 -171 141
-310 234 -497 331 -1019 527 -1605 602 -236 30 -517 38 -730 20z m720 -163
c694 -102 1257 -342 1778 -759 393 -314 745 -756 967 -1212 121 -250 238 -593
286 -838 56 -289 64 -378 64 -717 0 -339 -8 -428 -64 -717 -32 -162 -109 -418
-183 -603 -179 -450 -437 -840 -788 -1190 -408 -409 -875 -695 -1425 -873
-207 -68 -406 -111 -675 -149 -131 -18 -679 -18 -820 0 -818 106 -1531 452
-2100 1022 -492 491 -818 1089 -964 1765 -60 279 -70 384 -70 735 -1 320 3
383 39 595 179 1054 816 1968 1742 2498 405 231 819 372 1283 437 204 28 212
28 535 24 192 -2 325 -8 395 -18z"/>
<path d="M4010 6624 c-108 -104 -133 -160 -138 -308 -5 -131 7 -196 55 -290
19 -37 33 -69 31 -70 -4 -3 -283 -36 -565 -68 l-201 -22 -66 61 c-126 119
-283 170 -483 159 -87 -5 -103 -4 -103 9 0 11 -11 15 -42 15 -40 0 -47 -5
-126 -85 -103 -104 -147 -190 -161 -313 -9 -85 -1 -208 19 -283 29 -106 113
-231 200 -296 31 -23 50 -45 50 -58 0 -19 -81 -432 -116 -592 l-16 -72 -47 23
c-112 57 -183 71 -362 70 -134 0 -166 2 -162 13 5 14 -9 17 -62 13 -23 -1 -51
-23 -127 -97 -148 -147 -188 -241 -188 -444 0 -202 53 -348 172 -474 160 -169
320 -228 523 -191 182 34 257 69 342 160 185 197 234 476 123 697 -17 33 -25
57 -17 52 45 -27 455 -294 637 -415 l215 -143 175 -276 c313 -492 361 -569
366 -584 5 -11 -8 -9 -51 11 -32 13 -87 32 -124 41 -71 17 -280 23 -343 10
-33 -7 -36 -6 -31 13 5 18 1 20 -39 20 -42 0 -48 -4 -144 -97 -110 -106 -152
-174 -179 -289 -19 -78 -19 -223 0 -321 24 -127 81 -231 178 -328 168 -167
318 -213 542 -166 162 35 200 54 293 146 90 92 146 190 178 315 39 154 -6 373
-98 476 l-19 22 78 6 c121 10 573 36 623 36 l45 0 32 -68 c17 -37 52 -90 78
-119 57 -65 179 -148 247 -168 107 -32 304 -8 419 50 134 68 249 260 265 444
17 191 -93 389 -266 480 -36 19 -67 35 -68 37 -5 3 131 433 205 651 l35 101
46 -23 c26 -12 64 -28 86 -35 53 -17 185 -8 270 20 134 43 247 186 277 350 48
270 -171 510 -466 510 -51 0 -53 1 -59 33 -26 128 -96 564 -92 574 3 7 16 13
28 13 39 0 121 46 165 91 65 68 87 127 88 234 0 79 -3 97 -28 147 -35 70 -100
130 -176 159 -43 17 -79 22 -156 23 -55 1 -103 5 -106 10 -28 37 -156 -78
-184 -165 -10 -30 -21 -58 -25 -63 -5 -4 -40 -1 -80 8 -81 19 -317 75 -460
110 -52 13 -107 26 -121 30 -24 5 -26 9 -22 53 12 121 -42 259 -136 345 -104
97 -202 131 -378 131 -83 1 -114 4 -117 14 -3 7 -17 13 -32 13 -19 0 -47 -20
-104 -76z m415 -26 c28 -15 70 -48 95 -74 l45 -48 -42 35 c-112 93 -253 119
-400 73 -14 -4 -13 -3 2 7 75 48 215 51 300 7z m-76 -34 c14 -8 18 -13 8 -10
-9 3 -46 11 -82 17 -36 6 -65 13 -65 16 0 11 113 -8 139 -23z m-250 12 c-14
-12 -90 -45 -84 -36 3 6 21 17 38 24 31 14 55 20 46 12z m1739 -401 c28 -9 64
-27 79 -40 28 -24 27 -24 -27 3 -45 22 -68 27 -132 27 -82 0 -89 3 -36 15 49
12 60 11 116 -5z m-23 -35 c12 -5 -4 -6 -40 -3 -33 3 -62 7 -64 9 -9 8 85 2
104 -6z m-880 -70 c77 -17 194 -44 260 -60 66 -16 152 -36 191 -45 l71 -16 5
-73 c11 -171 130 -300 296 -322 l49 -6 11 -62 c6 -33 29 -168 53 -299 23 -131
40 -239 38 -241 -2 -2 -16 -6 -32 -10 -19 -5 -26 -3 -25 6 2 8 -10 14 -31 16
-31 3 -41 -4 -108 -72 -103 -106 -126 -158 -131 -301 -4 -113 11 -203 45 -268
25 -48 105 -97 -703 425 l-311 200 -124 212 c-68 116 -177 303 -242 416 -65
113 -128 219 -139 237 l-19 32 62 -32 c58 -30 69 -32 163 -32 155 1 225 27
317 119 66 65 129 165 129 204 0 8 7 11 18 8 9 -2 80 -19 157 -36z m-2164 -40
c29 -6 74 -20 99 -32 48 -24 128 -93 163 -143 14 -19 3 -12 -30 21 -86 84
-200 134 -305 134 -59 0 -179 -25 -219 -46 -17 -8 -33 -13 -36 -10 -3 3 10 11
28 19 19 8 52 22 73 32 76 33 146 40 227 25z m1404 -122 c88 -53 154 -72 252
-73 83 0 89 -1 61 -12 -17 -7 -61 -13 -99 -13 -55 0 -82 6 -132 29 -80 37
-135 78 -177 132 l-34 44 45 -41 c24 -23 62 -53 84 -66z m-1391 47 c28 -14 42
-22 31 -19 -58 19 -136 34 -180 35 -45 1 -47 2 -20 9 46 13 112 3 169 -25z
m-368 -20 c-26 -19 -42 -19 -26 0 7 8 20 15 29 15 13 -1 13 -3 -3 -15z m1614
-185 c26 -91 71 -244 99 -340 28 -96 51 -178 51 -182 0 -4 -78 43 -172 104
-95 61 -227 146 -293 188 -334 215 -476 310 -463 314 7 3 99 14 203 27 105 12
258 29 340 39 83 10 159 17 169 17 16 -2 27 -30 66 -167z m375 120 c19 -8 19
-9 -2 -9 -12 -1 -25 4 -28 9 -7 12 2 12 30 0z m-265 -190 c40 -69 142 -244
227 -390 85 -146 159 -269 164 -274 5 -6 9 -14 9 -18 0 -7 -230 136 -285 177
-23 17 -38 61 -116 330 -49 171 -89 312 -89 315 0 10 21 -23 90 -140z m-650
-58 c113 -72 313 -201 445 -287 132 -85 246 -159 253 -163 8 -6 142 -434 142
-457 0 -1 -27 11 -60 27 -93 45 -185 61 -327 56 -99 -4 -120 -2 -116 9 4 10
-6 13 -39 13 -41 0 -48 -4 -122 -78 -43 -43 -89 -96 -102 -118 -33 -55 -61
-147 -69 -227 l-7 -68 -81 6 c-45 3 -154 10 -241 15 -88 6 -163 13 -166 17
-19 22 -420 666 -417 669 1 2 20 -1 42 -6 102 -24 299 8 405 66 100 55 197
194 235 340 26 99 17 236 -21 329 -8 19 -7 19 16 4 14 -9 117 -75 230 -147z
m2248 2 c66 -31 67 -32 60 -40 -17 -16 -146 61 -174 105 -16 24 -15 24 19 -6
20 -18 63 -44 95 -59z m155 -11 c-7 -2 -19 -2 -25 0 -7 3 -2 5 12 5 14 0 19
-2 13 -5z m8 -29 c-24 -7 -49 -10 -55 -6 -6 4 7 10 29 13 65 10 73 8 26 -7z
m-3337 -395 c106 -69 155 -83 296 -84 l126 0 -40 -18 c-102 -45 -223 -28 -355
52 -69 42 -99 70 -160 151 l-34 45 54 -54 c30 -30 80 -71 113 -92z m246 -39
c70 -18 71 -19 23 -15 -28 3 -69 12 -90 20 -55 20 -20 17 67 -5z m1605 -123
c77 -50 150 -100 162 -111 12 -12 78 -117 147 -235 143 -242 146 -223 -29
-170 -209 63 -212 65 -267 121 l-52 53 -63 215 c-34 118 -63 219 -63 223 0 10
-6 13 165 -96z m-1671 -321 c119 -187 214 -341 213 -342 -4 -4 -549 26 -563
31 -8 2 9 106 52 316 63 310 71 346 78 338 2 -2 101 -157 220 -343z m3373 164
c55 -24 108 -65 135 -104 19 -27 15 -25 -26 12 -58 53 -131 87 -208 96 -32 4
-58 12 -58 18 0 16 105 1 157 -22z m-197 11 c0 -5 -12 -11 -27 -15 -16 -3 -39
-8 -53 -11 -15 -4 -9 2 15 14 44 21 65 26 65 12z m-975 -196 c143 -92 314
-203 380 -245 251 -161 339 -221 315 -215 -14 3 -52 15 -85 25 -33 10 -190 57
-350 106 -159 48 -295 92 -301 98 -22 21 -244 408 -232 403 7 -2 130 -80 273
-172z m1111 146 c14 -9 15 -11 2 -7 -9 3 -33 8 -52 12 -20 3 -36 10 -36 14 0
10 61 -4 86 -19z m-302 -16 c-10 -8 -23 -14 -29 -14 -5 0 -1 6 9 14 11 8 24
15 30 15 5 0 1 -7 -10 -15z m-1602 -103 c37 -18 85 -54 118 -87 l55 -57 -65
49 c-36 26 -90 59 -120 72 -109 47 -264 37 -397 -25 -80 -38 -91 -41 -73 -19
7 8 18 15 25 15 7 0 43 14 81 32 112 51 143 58 231 55 67 -3 92 -9 145 -35z
m-109 -33 c34 -11 66 -25 72 -30 5 -5 -10 -3 -35 6 -25 9 -81 19 -125 22 -52
4 -73 9 -60 14 35 13 84 10 148 -12z m298 -136 c13 -16 12 -17 -3 -4 -17 13
-22 21 -14 21 2 0 10 -8 17 -17z m361 -73 c92 -27 169 -50 172 -50 2 0 38 -57
79 -127 41 -71 106 -182 144 -248 228 -387 381 -650 379 -652 0 -1 -42 2 -91
6 -50 4 -125 4 -167 1 -66 -4 -77 -3 -75 10 1 11 -9 16 -37 18 -37 3 -43 -1
-126 -85 -137 -139 -178 -248 -167 -449 l5 -104 -37 22 c-20 12 -146 95 -281
183 -135 89 -293 193 -352 231 l-108 69 0 218 c0 119 2 217 5 217 18 0 167 34
205 46 66 22 102 48 165 115 143 156 192 385 122 571 -15 40 -21 65 -14 63 7
-2 87 -27 179 -55z m-2560 -59 c74 -35 156 -104 206 -175 29 -41 25 -38 -41
27 -117 116 -246 166 -392 153 -96 -8 -177 -30 -258 -71 -38 -19 -67 -29 -65
-23 5 14 230 114 274 121 16 3 70 4 119 3 78 -3 100 -7 157 -35z m3258 -153
c179 -55 332 -102 341 -105 15 -4 13 -15 -11 -96 -64 -212 -202 -633 -209
-640 -5 -5 -47 56 -94 135 -181 306 -476 814 -482 830 -8 20 -32 26 455 -124z
m-3325 94 c71 -37 70 -40 -5 -11 -36 14 -88 23 -148 27 -61 3 -89 8 -80 14 7
5 49 7 93 5 66 -3 91 -9 140 -35z m807 -21 l102 -6 169 -265 c195 -308 194
-305 175 -294 -39 24 -435 283 -648 423 l-245 163 173 -7 c95 -4 218 -10 274
-14z m408 -23 c114 -7 198 -16 202 -22 4 -6 8 -25 8 -41 0 -17 9 -63 20 -102
33 -119 91 -209 186 -287 78 -64 149 -100 230 -116 l61 -12 5 -202 c3 -110 4
-202 3 -203 0 -1 -133 84 -293 190 l-293 192 -165 260 c-91 143 -178 281 -195
308 l-29 47 33 0 c17 0 120 -5 227 -12z m2573 -107 c92 -62 161 -85 265 -85
89 -1 92 -2 60 -15 -18 -8 -61 -14 -95 -14 -50 0 -77 7 -135 35 -68 32 -188
128 -188 150 0 5 10 -2 23 -15 12 -13 44 -38 70 -56z m247 -51 l25 -8 -25 0
c-14 0 -34 3 -45 8 l-20 9 20 -1 c11 0 31 -4 45 -8z m-2250 -253 c30 -19 72
-40 93 -48 25 -9 37 -19 37 -32 0 -24 -25 -17 -99 26 -60 35 -119 89 -170 157
-34 45 -34 45 25 -12 32 -31 84 -72 114 -91z m236 -38 c3 -5 -5 -7 -18 -5 -13
3 -26 5 -30 5 -5 1 -8 5 -8 10 0 10 48 2 56 -10z m59 -9 c17 -7 15 -9 -12 -9
-18 -1 -33 4 -33 9 0 12 17 12 45 0z m92 -46 c-72 -38 -207 -41 -207 -6 0 15
13 17 114 17 92 0 111 -2 93 -11z m-2451 -296 c133 -85 238 -114 382 -105 48
3 96 8 107 11 11 4 -5 -6 -35 -21 -106 -53 -247 -42 -385 30 -60 32 -209 169
-235 216 -7 14 12 -1 42 -31 30 -31 86 -76 124 -100z m1957 -65 c136 -89 250
-168 252 -175 3 -8 4 -121 3 -252 l-3 -239 -46 74 c-26 41 -142 225 -259 409
-117 184 -215 341 -218 349 -7 18 -31 32 271 -166z m-1743 31 c14 -2 54 -11
90 -19 36 -8 74 -16 85 -18 11 -3 0 -5 -25 -6 -50 -1 -139 19 -192 44 -24 11
-26 14 -8 10 14 -3 36 -8 50 -11z m3419 -141 c55 -18 105 -50 151 -94 62 -60
77 -85 20 -35 -158 141 -357 159 -568 52 -28 -14 -49 -20 -46 -14 7 18 200 97
260 107 57 10 121 4 183 -16z m-48 -54 c54 -24 61 -36 11 -18 -18 6 -69 17
-114 24 l-83 13 68 1 c50 1 82 -5 118 -20z m-922 -298 c188 -123 339 -226 336
-229 -6 -6 -313 -27 -562 -37 -143 -6 -173 -5 -177 6 -2 8 -7 130 -10 273 l-6
258 39 -23 c21 -13 192 -125 380 -248z m-771 -165 c93 -25 174 -82 254 -179
l43 -52 -70 65 c-149 139 -312 177 -519 124 -33 -9 -82 -27 -110 -42 -74 -39
-86 -43 -80 -29 4 12 141 74 239 109 61 21 170 23 243 4z m-8 -84 c36 -18 56
-29 45 -26 -79 27 -161 43 -225 44 -54 1 -69 4 -55 10 11 6 54 8 95 7 62 -2
87 -8 140 -35z m1543 -255 c39 -19 92 -41 117 -47 50 -14 189 -19 235 -8 22 5
18 1 -15 -14 -153 -73 -372 6 -512 185 -29 38 -26 36 35 -19 38 -35 99 -77
140 -97z m180 -8 c27 -6 46 -13 43 -16 -9 -9 -90 7 -116 23 l-25 15 25 -6 c14
-3 47 -10 73 -16z m-2004 -578 c66 -45 156 -84 234 -102 56 -12 226 -8 262 6
15 6 17 5 9 -4 -22 -24 -129 -53 -195 -54 -152 0 -342 108 -442 253 l-31 45
52 -52 c29 -29 79 -70 111 -92z m286 -52 c28 -6 68 -15 90 -20 32 -6 27 -7
-30 -5 -65 3 -159 27 -179 46 -5 5 9 4 30 -1 22 -5 62 -14 89 -20z"/>
<path d="M1925 1694 c-77 -85 -141 -158 -143 -163 -2 -5 14 -22 34 -37 l37
-29 48 54 c27 30 51 53 53 50 3 -2 10 -54 17 -114 l12 -110 50 -50 c27 -27 52
-45 54 -39 2 7 -5 75 -17 153 -11 78 -20 149 -20 158 0 13 19 14 168 8 l167
-7 -47 48 -47 48 -121 4 c-66 3 -120 8 -120 11 0 4 16 23 36 42 57 54 60 66
28 100 -15 16 -33 29 -38 28 -6 0 -74 -70 -151 -155z"/>
<path d="M5891 1800 c-39 -34 -42 -27 47 -121 l43 -46 -81 -71 c-45 -40 -85
-72 -89 -72 -5 0 -35 30 -66 66 l-58 66 -36 -36 -35 -36 25 -27 c14 -16 79
-88 143 -160 65 -73 121 -133 124 -133 4 0 22 13 41 29 l35 29 -57 63 -57 64
77 72 c75 70 98 83 105 64 2 -5 25 -32 51 -60 l48 -52 34 28 c18 15 34 31 34
35 1 9 -281 328 -289 328 -3 -1 -20 -14 -39 -30z"/>
<path d="M2290 1383 c-63 -97 -116 -182 -118 -188 -2 -10 58 -55 73 -55 2 0
23 27 45 60 22 33 43 60 45 60 2 0 36 -20 75 -46 l70 -45 -40 -59 c-22 -32
-40 -63 -40 -69 0 -9 60 -51 73 -51 4 0 24 27 47 59 50 75 52 103 5 133 -40
26 -48 54 -12 44 83 -24 117 -12 143 51 33 78 -30 150 -241 275 -6 4 -62 -71
-125 -169z m238 -10 c33 -25 40 -50 22 -84 -19 -34 -72 -20 -168 47 -2 2 10
23 28 49 l32 46 26 -17 c15 -9 42 -28 60 -41z"/>
<path d="M5440 1437 c-94 -47 -190 -112 -185 -126 10 -26 220 -360 227 -361
11 0 139 81 186 118 51 40 82 97 82 149 0 75 -74 193 -142 229 -40 21 -116 17
-168 -9z m140 -93 c70 -59 91 -156 43 -200 -36 -33 -91 -66 -103 -62 -5 2 -39
50 -75 107 -47 77 -62 108 -54 117 16 20 110 64 135 64 12 0 37 -12 54 -26z"/>
<path d="M2730 1301 l-19 -38 40 -18 c22 -10 42 -22 45 -26 6 -10 -102 -239
-113 -239 -4 1 -19 7 -33 15 -39 22 -55 18 -73 -20 l-17 -35 137 -65 c75 -36
137 -64 139 -63 1 2 9 20 17 41 l16 37 -45 23 -44 22 55 115 c30 63 59 116 64
118 5 2 24 -4 41 -13 40 -20 55 -15 68 24 11 31 11 31 -51 62 -34 17 -94 46
-134 65 l-73 33 -20 -38z"/>
<path d="M5063 1242 c-73 -31 -133 -60 -133 -64 0 -10 162 -381 170 -391 7 -8
262 95 283 113 7 6 -13 60 -28 78 -1 1 -43 -16 -92 -38 -50 -22 -95 -40 -99
-40 -5 0 -16 18 -25 39 l-17 39 84 37 c46 21 84 39 84 42 0 4 -30 65 -35 71
-1 2 -29 -9 -61 -23 -110 -49 -101 -49 -124 -4 l-21 40 58 25 c32 14 77 34
100 44 l43 19 -14 33 c-8 18 -20 34 -28 35 -7 2 -73 -23 -145 -55z"/>
<path d="M3039 1173 c-19 -49 -12 -59 51 -78 34 -10 63 -21 65 -25 2 -3 -18
-78 -45 -166 -28 -87 -50 -162 -50 -166 0 -8 57 -28 79 -28 13 0 28 40 66 166
56 186 42 173 146 140 l46 -14 12 40 c7 22 11 41 9 43 -2 1 -85 27 -186 58
l-183 55 -10 -25z"/>
<path d="M4790 1136 c-73 -18 -85 -24 -83 -41 1 -11 7 -92 13 -180 6 -88 13
-175 16 -193 4 -28 2 -33 -11 -30 -11 2 -42 66 -92 188 -41 102 -78 188 -81
191 -8 7 -172 -29 -184 -40 -4 -3 1 -40 11 -81 10 -41 33 -137 51 -213 24
-101 36 -137 45 -133 8 3 30 8 49 12 39 7 40 8 27 50 -5 16 -24 92 -42 169
-18 77 -39 150 -47 163 -15 23 -9 43 8 26 5 -5 43 -90 85 -189 42 -98 78 -181
80 -184 10 -10 177 33 182 46 3 8 0 103 -7 210 -9 143 -9 198 -1 206 8 8 11 0
11 -28 0 -22 16 -105 35 -185 19 -80 37 -156 40 -169 5 -21 10 -22 43 -16 62
11 62 11 37 115 -13 52 -35 148 -50 213 -16 65 -33 117 -39 116 -6 -1 -49 -11
-96 -23z"/>
<path d="M3435 1047 c-3 -17 -14 -97 -25 -177 -10 -80 -22 -163 -26 -186 -6
-40 -5 -41 26 -48 67 -13 67 -13 80 77 l12 84 91 -13 c51 -7 100 -13 111 -14
17 0 18 -6 11 -62 -13 -119 -15 -112 35 -119 25 -4 46 -6 47 -5 1 1 15 98 32
216 33 235 34 230 -31 230 -40 0 -40 0 -54 -110 -3 -30 -8 -58 -10 -61 -1 -3
-43 0 -91 7 -48 7 -96 13 -105 13 -21 1 -24 47 -8 131 6 29 9 54 8 55 -2 1
-24 5 -50 8 -47 6 -47 6 -53 -26z"/>
<path d="M4015 1011 c-101 -45 -149 -165 -114 -282 46 -153 258 -201 374 -84
109 108 77 303 -60 366 -53 24 -147 25 -200 0z m166 -84 c44 -29 59 -60 59
-123 0 -65 -30 -112 -84 -133 -33 -13 -44 -13 -79 0 -54 19 -79 56 -85 122
-10 121 96 197 189 134z"/>
</g>
</svg>
